<?xml version="1.0" encoding="UTF-8" standalone="yes"?>
<svg version="1.1" id="Layer_1" xmlns="http://www.w3.org/2000/svg" xmlns:xlink="http://www.w3.org/1999/xlink" x="0px" y="0px" viewBox="0 0 260.59552 315" style="enable-background:new 0 0 260.59552 315;" xml:space="preserve">
      <style type="text/css">.st0{fill:url(#SVGID_1_);}	.st1{fill:url(#SVGID_00000133497527008200419360000001480367494212143508_);}	.st2{fill:url(#SVGID_00000167374502258127517030000016461363347024380351_);}</style>
    <g id="color_index_g">
              <linearGradient id="SVGID_1_" gradientUnits="userSpaceOnUse" x1="-0.0038198" y1="157.502655" x2="260.593811" y2="157.502655">
                      <stop offset="0" style="stop-color:#9d83fd"/>
            <stop offset="1" style="stop-color:#fe9053"/>
                  </linearGradient>
        <path class="st0" d="M220.6138458,88.7823181c-15.4799805-15.460022-32.5-29.2700195-50.7199707-41.2600098&#x9;&#x9;c13.4400024-4.9599609,27.25-8.9199829,41.2999878-11.7999878c9.6299744-1.5427589,16.2940369-10.7361794,14.8699951-20.2000122&#x9;&#x9;c-1.460022-10.2999878-11.3200073-17.2299805-21.5100098-15.1499634&#x9;&#x9;c-7.8999634,1.6099854-15.7299805,3.5199585-23.4799805,5.7199707&#x9;&#x9;c-17.4199829,4.9400029-34.4100342,11.3599854-50.789978,19.1400146h-0.0200195&#x9;&#x9;C106.6538849,14.0223093,81.7138824,5.6423039,56.073864,0.3923042&#x9;&#x9;c-9.9128265-2.1137609-20.1028824,4.7514172-21.5200195,15.1199951&#x9;&#x9;c-1.3399658,9.3900137,4.8500366,18.1799927,14.1400146,20.0800171&#x9;&#x9;c14.2700195,2.9100342,28.2999916,6.9199829,41.950016,11.9400024&#x9;&#x9;C77.9538727,55.8822937,65.8338776,65.122345,54.4138908,75.202301c-4.9700317,4.3699951-9.8000488,8.9100342-14.5,13.5900269&#x9;&#x9;C14.8938723,113.8122864,0.733838,147.0522766,0.023877,182.4223328&#x9;&#x9;c-0.7200317,35.9199829,12.6199951,69.3999634,37.5499878,94.2799683&#x9;&#x9;c25.5900269,25.5300293,59.159977,38.2999878,92.7200317,38.2999878&#x9;&#x9;c33.5599365-0.0100098,67.1199341-12.7699585,92.6299438-38.2799683&#x9;&#x9;c24.2999878-24.1900024,37.6699677-56.7200317,37.6699677-91.6000366&#x9;&#x9;C260.593811,149.3122864,246.02388,114.1922913,220.6138458,88.7823181z M197.52388,251.2622986&#x9;&#x9;c-37.0599976,37.0599976-97.4199829,37.039978-134.5400391-0.0100098c-17.9299927-17.8999634-27.5199585-42.0899658-27-68.1199951&#x9;&#x9;c0.5200195-26.0199585,10.9400024-50.5,29.3500404-68.8900146c8.4099731-8.4099731,17.3499756-16.2599487,26.710022-23.539978&#x9;&#x9;c12.0699463-9.3599854,24.8599854-17.7600098,38.2099609-25.0999756c0-0.0100098,0.0100098-0.0100098,0.0100098-0.0100098&#x9;&#x9;c23.75,13.0499878,45.6900024,29.4099731,64.9199829,48.6300049&#x9;&#x9;c18.7200317,18.7099609,29.4500122,44.5599976,29.4500122,70.8999634&#x9;&#x9;C224.6338654,210.3623352,215.0138702,233.8423157,197.52388,251.2622986z"/>
          </g>
    <g>
              <linearGradient id="SVGID_00000020360370826628316970000004792325604615934616_" gradientUnits="userSpaceOnUse" x1="130.5136108" y1="24.6182652" x2="81.4317093" y2="83.4758759">
                      <stop offset="0" style="stop-color:#000000;stop-opacity:0.5"/>
            <stop offset="1" style="stop-color:#000000;stop-opacity:0"/>
                  </linearGradient>
        <linearGradient id="SVGID_00000078016278083121440230000016311559266837637010_" gradientUnits="userSpaceOnUse" x1="134.2998505" y1="71.8677444" x2="176.4138794" y2="24.031189">
                      <stop offset="0" style="stop-color:#000000;stop-opacity:0.5"/>
            <stop offset="1" style="stop-color:#000000;stop-opacity:0"/>
                  </linearGradient>
        <path style="fill:url(#SVGID_00000020360370826628316970000004792325604615934616_);" d="M130.2538605,65.6023254&#x9;&#x9;c-13.3499756,7.3399658-26.1400146,15.7399902-38.2099609,25.0999756l-37.6300087-15.5&#x9;&#x9;C65.8338776,65.122345,77.9538727,55.8822937,90.6438751,47.5323181&#x9;&#x9;C104.313858,52.4823303,117.4838409,58.5823059,130.2538605,65.6023254z"/>
        <path style="fill:url(#SVGID_00000078016278083121440230000016311559266837637010_);" d="M211.1938629,35.7223206&#x9;&#x9;c-14.0499878,2.8800049-27.8599854,6.8400269-41.2999878,11.7999878&#x9;&#x9;c-12.7600098-8.3599854-25.8699951-15.8099976-39.6099854-22.289978&#x9;&#x9;c16.3799438-7.7800293,33.3699951-14.2000113,50.789978-19.1400146L211.1938629,35.7223206z"/>
          </g>
  </svg>
